# xmcd
#
# Track frame offsets:
#	150
#	27156
#	42587
#	63777
#	91437
#	108988
#	132023
#	177740
#	193943
#	227768
#	250899
#
# Disc length: 3601 seconds
#
# Revision: 1
# Processed by: cddbd v1.5.2PL0 Copyright (c) Steve Scherf et al.
# Submitted via: audiograbber 1.83.01
#
DISCID=970e0f0b
DTITLE=Grateful Dead - 72-09-16A Boston Music Hall, Boston MA
DYEAR=1900
DGENRE=
TTITLE0=Bertha
TTITLE1=Me and My Uncle
TTITLE2=Deal
TTITLE3=Black Throated Wind
TTITLE4=You Win Again
TTITLE5=Big River
TTITLE6=Bird Song
TTITLE7=Mexicali Blues
TTITLE8=Stella Blue
TTITLE9=Jack Straw
TTITLE10=Big Railroad Blues
EXTD=
EXTT0=
EXTT1=
EXTT2=
EXTT3=
EXTT4=
EXTT5=
EXTT6=
EXTT7=
EXTT8=
EXTT9=
EXTT10=
PLAYORDER=
